<svg width="1706.67" height="992" viewBox="0 0 1280 744" xmlns="http://www.w3.org/2000/svg" xmlns:xlink="http://www.w3.org/1999/xlink" overflow="hidden"><g transform="matrix(0.1 0 0 -0.1 0 744)"><path d="M11238 7426C11224 7420 11202 7403 11191 7388 11179 7373 11156 7359 11140 7355 11110 7348 11050 7287 11050 7263 11050 7256 11047 7250 11042 7250 11038 7250 11029 7227 11022 7198 11007 7132 11021 7122 11120 7128L11145 7129 11120 7110C11092 7088 11074 7085 11064 7101 11061 7107 11046 7110 11031 7107 11015 7104 10998 7108 10988 7117 10972 7131 10967 7131 10933 7115 10912 7105 10884 7087 10870 7075 10856 7063 10832 7048 10817 7043 10801 7038 10772 7020 10752 7002 10731 6984 10690 6948 10660 6921 10630 6894 10580 6860 10550 6845 10495 6818 10330 6667 10330 6644 10330 6638 10317 6608 10300 6577 10284 6546 10270 6512 10270 6502 10270 6492 10259 6478 10245 6472 10231 6466 10220 6452 10220 6442 10220 6432 10209 6414 10195 6402 10177 6386 10170 6370 10170 6345 10170 6315 10173 6310 10194 6310 10207 6310 10220 6304 10223 6296 10226 6288 10238 6284 10254 6287 10294 6295 10370 6260 10370 6234 10370 6220 10362 6210 10348 6207 10335 6204 10304 6194 10279 6184 10239 6169 10230 6168 10216 6179 10201 6191 10201 6195 10215 6210 10228 6225 10227 6229 10201 6254L10173 6281 10146 6250C10120 6218 10112 6186 10129 6176 10134 6173 10141 6149 10145 6124 10151 6081 10149 6076 10121 6051 10105 6037 10090 6014 10088 6000 10086 5984 10078 5974 10065 5972 10036 5967 10020 5941 10020 5900 10020 5876 10013 5857 10000 5845 9989 5835 9980 5817 9980 5806 9980 5786 9965 5772 9910 5743 9887 5731 9882 5733 9843 5772L9801 5813 9734 5807C9671 5802 9666 5800 9629 5759 9561 5682 9530 5633 9530 5600 9530 5577 9519 5557 9487 5523 9444 5478 9443 5478 9409 5490 9379 5501 9369 5500 9339 5484 9321 5474 9300 5467 9294 5468 9288 5469 9275 5461 9265 5450 9247 5430 9220 5423 9220 5438 9220 5442 9227 5453 9235 5464 9248 5481 9247 5485 9224 5503L9199 5523 9142 5498C9078 5471 9056 5441 9056 5377 9055 5342 9053 5339 9030 5344 9015 5346 8997 5342 8985 5332 8969 5319 8970 5321 8988 5341 9036 5396 9010 5409 8919 5373 8867 5353 8844 5338 8834 5318 8818 5286 8792 5270 8757 5270 8744 5270 8725 5261 8714 5249 8698 5231 8697 5227 8710 5219 8756 5192 8756 5192 8732 5167 8704 5137 8702 5085 8729 5070 8741 5064 8751 5064 8754 5069 8760 5079 8830 5022 8830 5008 8830 5004 8820 5000 8807 5000 8786 5000 8730 4954 8730 4938 8730 4934 8738 4929 8748 4927 8762 4923 8762 4922 8745 4921 8734 4920 8708 4915 8688 4909 8649 4899 8620 4861 8620 4822 8620 4794 8558 4783 8528 4805 8515 4813 8493 4820 8478 4820 8454 4820 8450 4816 8450 4792 8450 4777 8455 4759 8462 4752 8473 4741 8510 4637 8510 4615 8510 4610 8489 4604 8462 4603 8423 4601 8409 4606 8378 4631 8358 4647 8334 4660 8326 4660 8318 4660 8310 4670 8308 4683 8306 4701 8299 4705 8275 4703 8245 4701 8245 4701 8267 4718 8302 4746 8287 4821 8248 4808 8229 4801 8187 4856 8195 4879 8201 4898 8181 4908 8122 4915 8109 4917 8093 4923 8085 4930 8075 4938 8067 4937 8051 4923 8039 4914 8030 4899 8030 4892 8030 4884 8024 4880 8018 4883 8011 4885 7997 4883 7987 4878 7973 4871 7963 4873 7950 4885 7940 4894 7925 4900 7918 4897 7911 4895 7897 4899 7888 4907 7873 4920 7870 4918 7861 4883 7846 4832 7847 4826 7870 4783 7897 4731 7896 4712 7863 4704 7847 4700 7822 4686 7807 4673 7771 4644 7762 4644 7748 4675 7736 4702 7720 4699 7720 4669 7720 4652 7714 4649 7688 4652 7667 4654 7655 4660 7655 4670 7654 4678 7650 4693 7644 4703 7635 4719 7630 4720 7574 4706 7542 4698 7502 4689 7487 4686 7471 4682 7439 4661 7414 4638 7373 4600 7370 4599 7370 4620 7370 4633 7362 4652 7353 4662 7336 4681 7335 4681 7310 4650 7287 4622 7282 4620 7257 4629 7241 4635 7212 4640 7191 4640 7155 4640 7154 4641 7158 4669 7160 4685 7180 4719 7202 4746 7246 4800 7270 4841 7270 4865 7270 4873 7275 4889 7282 4900 7292 4916 7291 4924 7272 4949 7260 4966 7250 4992 7250 5008 7250 5037 7203 5094 7182 5088 7177 5086 7161 5101 7148 5120 7130 5145 7117 5154 7100 5152 7088 5151 7072 5154 7065 5160 7057 5166 7047 5165 7034 5155 7024 5147 7005 5140 6993 5140 6981 5140 6959 5135 6945 5128 6923 5118 6916 5120 6896 5139 6875 5159 6865 5161 6828 5155L6785 5148 6808 5172C6825 5191 6829 5203 6824 5229 6819 5250 6812 5260 6801 5259 6792 5258 6773 5260 6758 5264 6736 5270 6724 5266 6691 5239 6630 5190 6589 5065 6622 5032 6640 5014 6615 5000 6563 5000 6528 5000 6521 4997 6523 4980 6524 4969 6531 4958 6540 4955 6551 4950 6546 4945 6523 4935 6505 4927 6490 4916 6490 4910 6490 4905 6478 4900 6464 4900 6443 4900 6440 4904 6445 4920 6450 4937 6447 4940 6420 4940 6403 4940 6387 4934 6384 4926 6381 4918 6359 4909 6335 4905 6287 4898 6235 4863 6258 4853 6278 4845 6222 4814 6172 4805 6149 4801 6128 4794 6124 4789 6121 4784 6104 4773 6085 4766 6067 4758 6047 4742 6040 4731 6033 4717 6019 4710 6001 4710 5971 4710 5968 4702 5958 4605 5957 4594 5944 4575 5930 4563L5905 4540 5938 4512C5955 4496 5970 4481 5970 4478 5970 4463 5790 4444 5711 4450 5658 4454 5642 4452 5623 4437 5599 4418 5593 4382 5609 4351 5616 4339 5614 4320 5605 4292 5591 4253 5592 4249 5617 4211 5632 4188 5647 4170 5652 4170 5660 4170 5690 4117 5690 4100 5690 4082 5654 4089 5634 4111 5624 4123 5616 4142 5617 4153 5620 4185 5542 4240 5506 4233 5483 4228 5479 4231 5482 4246 5484 4257 5475 4270 5458 4279 5431 4294 5429 4294 5398 4262 5368 4232 5367 4228 5382 4219 5392 4214 5403 4209 5407 4209 5416 4210 5432 4158 5425 4151 5422 4149 5407 4158 5392 4173 5366 4198 5363 4199 5342 4184 5321 4170 5320 4170 5325 4197 5327 4212 5332 4255 5335 4293L5341 4360 5314 4360C5291 4360 5289 4362 5301 4376 5312 4390 5310 4395 5290 4410 5265 4429 5265 4429 5258 4402 5253 4385 5255 4370 5264 4360 5281 4341 5278 4247 5261 4226 5253 4217 5238 4210 5226 4210 5213 4210 5184 4190 5157 4162 5115 4119 5111 4112 5124 4100 5133 4093 5140 4076 5140 4062 5140 4049 5145 4020 5152 3999 5161 3967 5161 3957 5148 3943 5121 3911 5080 3819 5080 3789 5080 3773 5075 3751 5069 3741 5050 3712 5066 3670 5094 3670 5108 3670 5120 3665 5122 3658 5125 3650 5135 3651 5158 3662 5187 3677 5192 3677 5230 3658 5275 3635 5310 3597 5310 3569 5310 3533 5292 3542 5269 3590 5245 3639 5245 3639 5194 3640 5150 3640 5140 3636 5111 3606 5079 3573 5078 3569 5084 3516L5091 3461 5046 3412C5021 3385 5000 3354 5000 3343 5000 3329 4989 3318 4968 3310 4950 3303 4926 3294 4915 3290 4904 3285 4885 3278 4873 3275 4859 3271 4850 3261 4850 3249 4850 3226 4828 3224 4810 3245 4803 3253 4789 3260 4779 3260 4754 3260 4702 3292 4683 3319 4661 3351 4674 3355 4710 3329 4736 3310 4744 3308 4760 3318 4771 3324 4786 3327 4795 3324 4824 3312 4856 3330 4887 3374 4905 3400 4936 3427 4957 3437 4990 3452 4995 3460 4998 3492 5000 3517 5008 3533 5024 3544 5058 3566 5062 3604 5034 3631 5005 3658 5004 3686 5030 3768 5041 3803 5050 3844 5050 3859 5050 3873 5061 3901 5074 3921 5088 3941 5104 3985 5110 4019 5120 4074 5119 4084 5105 4100 5084 4123 5092 4154 5130 4195 5145 4212 5161 4241 5165 4260 5169 4279 5177 4301 5182 4308 5189 4316 5189 4334 5180 4365 5169 4405 5164 4410 5139 4410 5124 4410 5108 4415 5105 4420 5102 4426 5089 4430 5076 4430 5063 4430 5045 4439 5035 4450 5019 4468 5016 4468 4992 4452 4978 4443 4952 4403 4930 4355 4890 4269 4854 4230 4793 4208 4766 4198 4752 4185 4739 4155 4723 4121 4723 4113 4735 4104 4747 4095 4747 4088 4735 4054 4727 4033 4721 4009 4720 4001 4720 3993 4706 3975 4689 3960 4658 3935 4658 3934 4673 3903 4682 3886 4697 3870 4706 3866 4718 3861 4721 3852 4716 3827 4712 3804 4716 3785 4731 3761 4749 3730 4750 3726 4736 3718 4727 3713 4720 3698 4720 3685 4720 3672 4715 3658 4709 3654 4695 3646 4680 3668 4680 3696 4680 3708 4658 3746 4630 3781 4603 3816 4572 3858 4563 3874 4534 3922 4399 4065 4385 4062 4378 4061 4367 4067 4360 4075 4352 4085 4339 4088 4323 4084 4301 4078 4299 4079 4308 4097 4315 4109 4315 4122 4309 4131 4304 4138 4300 4155 4300 4167 4300 4198 4279 4240 4264 4240 4257 4240 4239 4235 4225 4228 4200 4217 4199 4213 4205 4171 4209 4147 4218 4121 4226 4113 4234 4105 4240 4094 4240 4089 4240 4084 4249 4080 4260 4080 4271 4080 4280 4076 4280 4070 4280 4065 4276 4060 4270 4060 4265 4060 4260 4035 4260 4005 4260 3957 4258 3950 4240 3950 4229 3950 4220 3943 4220 3935 4220 3926 4211 3920 4195 3920 4181 3920 4167 3913 4164 3905 4160 3897 4154 3890 4149 3890 4133 3890 4139 3915 4160 3933 4171 3942 4180 3956 4180 3963 4180 3982 4144 4013 4131 4006 4126 4002 4100 3996 4073 3991 4029 3982 4024 3984 3991 4012 3956 4043 3938 4045 3844 4025 3808 4017 3798 4026 3807 4058 3811 4073 3820 4080 3837 4080 3860 4080 3861 4083 3855 4112 3845 4157 3843 4160 3811 4160 3768 4160 3720 4140 3720 4122 3719 4108 3717 4108 3704 4125 3695 4137 3676 4145 3652 4147 3491 4156 3430 4157 3430 4149 3430 4145 3423 4143 3415 4146 3407 4150 3384 4149 3365 4146 3339 4141 3330 4134 3330 4120 3330 4088 3298 4078 3252 4096 3216 4111 3212 4116 3206 4157 3196 4235 3197 4238 3236 4246 3265 4251 3276 4248 3296 4229L3320 4206 3342 4227C3356 4241 3364 4266 3368 4298 3372 4340 3368 4354 3349 4382 3293 4462 3265 4490 3239 4490 3214 4490 3213 4489 3218 4437 3222 4388 3220 4382 3196 4367 3182 4357 3170 4343 3170 4335 3170 4326 3159 4315 3146 4309 3120 4297 3100 4262 3100 4229 3100 4165 3020 4116 2990 4162 2982 4174 2965 4196 2954 4210 2933 4234 2930 4234 2886 4222 2847 4212 2835 4212 2812 4224 2792 4235 2779 4235 2765 4228 2755 4222 2725 4218 2698 4219L2650 4220 2650 4181C2650 4159 2644 4137 2635 4130 2626 4123 2621 4108 2622 4096 2624 4080 2620 4076 2605 4078 2594 4080 2581 4088 2575 4097 2570 4106 2555 4125 2543 4140 2528 4159 2516 4193 2508 4244 2497 4317 2495 4320 2470 4320 2429 4320 2400 4282 2400 4227 2400 4202 2404 4178 2410 4175 2428 4164 2421 4125 2399 4111 2379 4099 2374 4101 2342 4134 2309 4166 2307 4171 2319 4194 2330 4214 2330 4226 2317 4263 2303 4305 2303 4310 2320 4325 2330 4334 2341 4358 2345 4378 2353 4420 2385 4460 2412 4460 2447 4460 2495 4574 2472 4603 2459 4619 2469 4680 2485 4680 2492 4680 2501 4664 2504 4645 2513 4599 2573 4468 2594 4451 2603 4444 2610 4423 2610 4404 2610 4367 2643 4336 2720 4301 2779 4274 2892 4281 2928 4314 2993 4372 3034 4517 2997 4558 2977 4581 2968 4630 2966 4737 2965 4812 2962 4830 2942 4854 2930 4870 2920 4893 2920 4907 2920 4920 2913 4933 2905 4936 2897 4940 2890 4952 2890 4964 2890 4975 2877 4996 2861 5010 2845 5024 2830 5049 2826 5068 2821 5098 2832 5112 2845 5090 2848 5085 2860 5075 2871 5069 2891 5059 2891 5061 2884 5107 2876 5160 2868 5170 2826 5170 2801 5170 2798 5172 2804 5197 2811 5223 2811 5223 2786 5206 2768 5195 2755 5193 2743 5199 2733 5204 2702 5213 2674 5220 2624 5231 2620 5230 2546 5193L2470 5156 2470 5102C2470 5073 2463 5036 2455 5020 2441 4992 2435 4990 2386 4990 2336 4990 2330 4987 2296 4950 2276 4928 2260 4903 2260 4893 2260 4884 2244 4849 2225 4814 2200 4770 2185 4753 2175 4756 2167 4759 2141 4748 2118 4731 2095 4714 2068 4700 2058 4700 2044 4700 2040 4692 2040 4665 2040 4643 2034 4627 2025 4624 2017 4620 2010 4606 2010 4590 2010 4554 1981 4530 1938 4530 1903 4530 1903 4530 1896 4478 1893 4449 1890 4406 1890 4382 1890 4317 1874 4313 1578 4309 1441 4307 1330 4303 1330 4301 1330 4298 1340 4286 1352 4273 1370 4254 1373 4240 1371 4198 1369 4155 1372 4144 1390 4130 1405 4119 1411 4106 1408 4089L1404 4065 1392 4093C1385 4110 1366 4127 1345 4136 1326 4144 1310 4154 1310 4159 1310 4163 1298 4172 1283 4179 1258 4190 1253 4189 1235 4168 1224 4155 1202 4144 1185 4143 1113 4138 1081 4127 1056 4099 1041 4083 1024 4070 1016 4070 1008 4070 997 4057 991 4040 984 4018 975 4010 957 4010 928 4010 900 3981 900 3953 900 3938 888 3926 860 3913 827 3898 820 3891 823 3872 826 3856 816 3836 794 3808 754 3761 753 3750 781 3700 799 3668 801 3657 792 3631 782 3604 784 3600 803 3594 838 3584 860 3559 860 3531 859 3503 813 3446 783 3436 770 3432 756 3404 736 3342 720 3294 704 3248 699 3238 694 3227 696 3217 706 3209 722 3196 718 3135 700 3116 685 3100 645 3119 628 3150 607 3187 572 3188 554 3152 548 3139 529 3114 512 3097 461 3043 456 3024 481 2989 497 2966 508 2960 524 2964 539 2968 550 2963 557 2950 564 2940 579 2930 592 2928 644 2921 652 2807 602 2785 590 2780 577 2768 575 2759 572 2749 562 2739 554 2736 541 2731 543 2723 565 2687 596 2633 597 2603 566 2561 540 2526 541 2497 570 2477 579 2470 590 2455 594 2443 598 2431 621 2405 646 2385 689 2349 691 2346 689 2300 687 2257 690 2247 723 2211 743 2188 760 2164 760 2156 760 2149 767 2137 775 2130 783 2123 790 2108 790 2096 790 2084 795 2069 801 2063 821 2043 801 2010 768 2010 730 2010 670 1956 669 1920 669 1905 658 1886 639 1871L609 1847 570 1885C539 1915 524 1922 487 1925 439 1928 385 1904 374 1875 368 1860 405 1821 426 1820 431 1820 445 1813 456 1804 475 1789 475 1789 454 1795 443 1798 413 1802 388 1804 363 1806 331 1815 317 1825 275 1852 256 1839 264 1785L271 1740 217 1740C176 1740 156 1735 135 1718L107 1696 89 1718C69 1744 38 1746 19 1724-2 1698-1 1615 21 1586 31 1573 40 1549 40 1533 40 1517 49 1487 60 1465 75 1435 80 1406 80 1342 80 1260 90 1220 111 1220 137 1220 230 1089 230 1053 230 1046 247 1029 268 1015 310 987 360 919 360 890 360 880 367 867 375 860 383 853 390 833 390 815 390 779 411 756 452 746 467 743 487 729 496 715 505 701 519 690 526 690 534 690 540 685 540 678 540 672 547 659 556 649 569 634 570 626 560 598 549 569 550 560 569 530 580 511 590 485 590 472 590 460 596 447 603 444 611 441 625 403 636 358 650 297 660 276 675 270 703 259 802 265 828 279 852 292 857 328 851 467 848 527 852 546 871 579 883 602 897 620 902 620 906 620 910 625 910 632 910 638 917 651 925 660 934 670 943 700 947 729 952 770 949 784 935 800 907 831 922 847 988 855 1038 861 1053 867 1086 899L1124 937 1155 919C1195 894 1340 892 1364 916 1384 936 1384 937 1360 967 1332 1002 1333 1025 1361 1008 1378 997 1383 998 1396 1015 1407 1030 1409 1054 1404 1125 1398 1209 1395 1217 1364 1250 1333 1284 1332 1287 1342 1326 1352 1363 1351 1370 1331 1396L1308 1425 1335 1447C1349 1460 1370 1470 1381 1470 1411 1470 1440 1488 1440 1507 1440 1532 1490 1580 1516 1580 1528 1580 1547 1591 1558 1605 1569 1619 1585 1630 1593 1630 1606 1630 1608 1621 1603 1583 1597 1528 1614 1504 1664 1498 1689 1495 1696 1501 1715 1535 1736 1571 1742 1575 1781 1578 1805 1580 1833 1589 1843 1598 1858 1611 1866 1612 1895 1601 1933 1588 1965 1593 1993 1618 2018 1640 2044 1623 2050 1579 2055 1547 2057 1545 2096 1545 2137 1545 2170 1528 2170 1506 2170 1500 2186 1486 2207 1475 2238 1458 2246 1445 2267 1380 2287 1319 2289 1302 2279 1284 2273 1271 2270 1254 2273 1246 2281 1225 2316 1226 2330 1248 2339 1264 2341 1264 2357 1244 2367 1232 2380 1214 2386 1204 2398 1183 2464 1181 2500 1200 2517 1209 2527 1207 2553 1191 2571 1180 2590 1162 2597 1151 2608 1134 2613 1133 2644 1142 2686 1155 2710 1141 2710 1104 2710 1091 2726 1058 2746 1030 2776 988 2787 980 2814 980 2832 980 2851 985 2856 990 2863 997 2873 990 2888 970 2908 944 2917 940 2961 940 3007 940 3016 944 3046 977 3085 1019 3086 1023 3065 1040 3057 1047 3050 1058 3050 1065 3050 1072 3034 1097 3015 1119 2976 1167 2978 1189 3021 1188 3061 1187 3082 1209 3083 1256 3085 1292 3088 1295 3116 1298 3136 1300 3152 1294 3165 1280 3188 1255 3212 1254 3235 1280 3253 1300 3253 1301 3224 1333 3195 1364 3192 1378 3199 1448 3201 1467 3234 1462 3273 1436 3302 1416 3324 1411 3401 1407 3453 1404 3515 1397 3540 1390 3598 1375 3627 1375 3656 1391 3674 1400 3686 1401 3705 1392 3719 1385 3757 1380 3788 1380 3819 1380 3851 1376 3858 1372 3874 1362 3975 1381 3992 1398 4008 1414 4032 1413 4056 1395 4066 1387 4087 1380 4101 1380 4116 1380 4130 1374 4133 1366 4136 1359 4154 1350 4173 1346 4196 1342 4210 1333 4213 1319 4220 1293 4210 1229 4197 1213 4192 1206 4191 1189 4194 1176 4201 1147 4248 1133 4279 1149 4304 1163 4313 1150 4304 1116 4299 1094 4302 1089 4325 1080 4344 1073 4356 1073 4365 1080 4373 1087 4387 1086 4409 1077L4441 1064 4417 1053C4394 1042 4375 995 4387 977 4390 972 4409 970 4429 972 4449 975 4473 972 4482 966 4495 959 4508 960 4535 973 4555 982 4577 990 4584 990 4591 990 4605 999 4615 1010 4627 1023 4646 1030 4670 1030 4692 1030 4718 1038 4732 1050 4756 1068 4770 1068 4770 1048 4770 1043 4759 1035 4745 1030 4710 1017 4710 973 4745 960 4759 955 4779 936 4788 918 4797 901 4819 871 4836 851 4872 809 4890 762 4890 710 4890 689 4897 667 4905 660 4913 653 4920 636 4920 621 4920 607 4929 580 4940 562 4951 544 4960 523 4960 515 4960 491 4991 406 5006 389 5026 367 5069 377 5082 406 5097 438 5130 438 5130 406 5130 375 5182 330 5210 337 5221 340 5236 337 5244 331 5260 317 5315 327 5331 346 5337 354 5350 360 5359 359 5386 358 5465 295 5468 272 5470 260 5493 228 5520 200 5547 172 5570 139 5572 127 5574 110 5587 101 5630 87 5680 71 5688 71 5724 85 5745 94 5763 100 5765 98 5766 96 5777 76 5790 53 5821-3 5865-13 5914 25 5937 42 5959 50 5987 50 6012 50 6033 56 6040 66 6048 74 6068 87 6087 95 6105 103 6120 116 6120 124 6120 133 6128 140 6139 140 6149 140 6164 148 6171 157 6195 186 6273 230 6301 230 6319 230 6329 236 6333 250 6336 263 6347 270 6363 270 6376 270 6393 277 6400 285 6417 305 6424 304 6460 274 6487 251 6494 249 6516 259 6555 276 6566 273 6620 225 6680 171 6717 161 6865 154L6979 148 7030 192C7070 227 7080 241 7080 266 7080 283 7073 303 7065 310 7057 317 7050 335 7050 350 7050 365 7043 383 7035 390 7017 405 7025 446 7051 476 7062 487 7070 501 7070 506 7070 512 7083 529 7099 544 7127 571 7130 571 7151 556 7164 547 7193 540 7216 540 7243 540 7263 534 7274 521 7288 505 7297 504 7330 512 7409 532 7463 503 7512 411 7532 375 7597 341 7647 340 7704 340 7784 362 7808 384 7840 412 7960 430 8010 413 8029 406 8071 401 8102 401 8154 400 8162 397 8181 370 8214 327 8249 319 8360 330 8544 350 8542 349 8585 391 8607 412 8641 436 8660 444 8709 464 8780 528 8780 551 8780 574 8843 646 8880 665 8903 677 8911 676 8947 660L8987 642 9038 670C9085 696 9095 697 9152 690 9251 679 9316 708 9345 777 9353 796 9370 814 9385 820 9419 833 9419 878 9384 930 9361 964 9359 974 9368 997 9374 1013 9381 1055 9385 1093 9388 1130 9395 1171 9401 1183 9416 1217 9397 1280 9360 1315 9334 1340 9327 1343 9310 1332 9286 1317 9286 1319 9307 1388 9322 1433 9332 1448 9365 1469 9388 1483 9427 1512 9453 1534 9502 1574 9546 1588 9645 1596 9673 1598 9724 1602 9760 1606 9820 1611 9829 1609 9868 1584 9891 1569 9910 1550 9910 1543 9910 1535 9923 1524 9938 1517 9982 1498 10048 1440 10054 1415 10058 1399 10070 1389 10090 1385 10120 1378 10204 1304 10233 1259 10254 1225 10304 1214 10353 1235 10372 1243 10391 1254 10395 1260 10403 1273 10515 1273 10564 1259 10591 1251 10605 1251 10613 1259 10619 1265 10631 1270 10640 1270 10663 1270 10710 1218 10710 1192 10710 1177 10722 1164 10750 1150 10801 1124 10840 1124 10847 1150 10850 1161 10857 1170 10864 1170 10870 1170 10899 1186 10927 1205 10973 1236 10979 1243 10974 1268 10970 1288 10978 1311 11004 1355 11072 1472 11078 1474 11134 1412 11167 1375 11172 1366 11162 1352 11139 1320 11138 1309 11156 1289 11178 1265 11202 1204 11204 1169 11204 1155 11210 1137 11216 1129 11230 1112 11241 1060 11244 1005 11245 983 11251 956 11257 944 11274 915 11249 880 11211 880 11174 880 11130 845 11130 816 11130 804 11119 783 11105 770 11070 737 11071 695 11107 678 11122 671 11144 650 11155 632 11166 613 11194 576 11218 549 11264 494 11270 466 11245 407 11223 354 11226 331 11256 320 11302 302 11316 329 11327 453 11331 500 11334 509 11345 500 11362 486 11380 495 11380 518 11380 530 11383 531 11392 522 11409 505 11430 507 11478 530 11500 541 11528 550 11538 550 11551 550 11566 570 11590 617 11608 655 11631 697 11641 711 11657 734 11659 760 11659 966 11659 1109 11663 1214 11671 1243 11684 1298 11672 1405 11639 1517 11612 1609 11598 1716 11600 1828 11602 1918 11601 1921 11571 1956 11554 1975 11533 2007 11525 2027 11507 2071 11465 2129 11391 2213 11328 2285 11313 2318 11302 2400 11292 2471 11293 2471 11380 2433 11423 2415 11446 2398 11456 2378 11465 2362 11504 2314 11544 2272 11622 2189 11659 2140 11677 2098 11684 2083 11710 2060 11739 2045 11775 2025 11798 2002 11824 1961 11843 1930 11872 1892 11889 1876 11906 1859 11920 1839 11920 1830 11920 1822 11947 1788 11980 1755 12030 1705 12043 1697 12058 1706 12084 1723 12083 1742 12055 1784 12041 1805 12030 1832 12032 1843 12036 1869 12084 1884 12122 1871 12171 1854 12176 1895 12129 1934 12095 1963 12071 1967 12051 1948 12041 1937 12035 1939 12023 1958 12014 1970 11999 1980 11989 1980 11979 1980 11968 1985 11965 1990 11962 1996 11946 2000 11931 2000 11914 2000 11888 2013 11862 2036 11829 2064 11820 2078 11820 2103 11820 2121 11809 2152 11795 2172 11767 2213 11760 2280 11784 2280 11805 2280 11850 2320 11850 2338 11850 2348 11834 2363 11812 2373 11756 2400 11685 2443 11666 2463 11656 2473 11632 2490 11611 2501 11591 2512 11559 2532 11540 2546 11521 2560 11493 2574 11479 2577 11445 2583 11388 2641 11357 2700 11340 2733 11326 2746 11302 2752 11284 2757 11263 2772 11254 2785 11245 2799 11229 2810 11219 2810 11209 2810 11191 2824 11178 2840 11157 2869 11087 2900 11074 2887 11070 2884 11071 2865 11074 2845 11080 2817 11085 2810 11104 2810 11119 2810 11137 2797 11154 2775L11181 2740 11157 2740C11136 2740 11132 2734 11126 2700 11121 2669 11114 2657 11094 2650 11060 2637 11017 2637 11003 2651 10996 2658 10967 2661 10928 2658 10880 2655 10855 2647 10822 2626L10780 2597 10810 2542C10846 2475 10846 2472 10818 2468 10805 2466 10791 2455 10785 2442 10773 2415 10760 2413 10760 2439 10760 2450 10746 2472 10729 2490 10704 2514 10695 2518 10684 2509 10668 2496 10665 2454 10680 2445 10686 2442 10690 2431 10690 2422 10689 2401 10647 2449 10624 2498 10615 2515 10605 2530 10601 2530 10597 2530 10581 2516 10565 2500 10549 2484 10530 2470 10521 2470 10513 2470 10499 2463 10489 2454 10479 2445 10466 2441 10461 2445 10447 2453 10458 2557 10475 2585 10498 2623 10519 2842 10501 2864 10486 2882 10498 3105 10516 3141 10527 3164 10526 3169 10507 3188 10479 3216 10478 3280 10504 3309 10523 3329 10523 3332 10507 3366 10477 3429 10488 3481 10549 3558 10614 3640 10664 3690 10682 3690 10692 3690 10714 3697 10731 3705 10759 3720 10759 3722 10745 3744 10729 3768 10734 3780 10760 3780 10783 3780 10844 3845 10835 3860 10830 3868 10832 3871 10841 3868 10849 3865 10865 3872 10877 3882L10899 3902 10878 3930C10852 3966 10862 3997 10906 4016 10925 4024 10940 4034 10940 4039 10940 4047 11024 4100 11036 4100 11038 4100 11040 4088 11040 4074 11040 4042 11061 4020 11094 4020 11115 4020 11121 4027 11131 4063 11138 4086 11152 4112 11163 4121 11180 4135 11182 4145 11177 4183 11171 4227 11172 4229 11198 4232 11218 4234 11226 4241 11228 4260 11230 4274 11237 4290 11244 4295 11251 4301 11259 4317 11262 4333 11267 4357 11264 4360 11241 4360 11227 4360 11204 4351 11190 4340 11163 4320 11140 4328 11140 4358 11140 4367 11131 4383 11120 4395 11106 4410 11099 4436 11094 4490 11090 4531 11081 4574 11074 4585 11066 4596 11060 4620 11060 4640 11060 4664 11054 4679 11040 4688 11016 4702 11012 4764 11033 4789 11041 4798 11053 4826 11059 4851 11070 4890 11075 4897 11091 4893 11106 4889 11114 4895 11123 4919 11134 4949 11150 4961 11150 4940 11150 4927 11229 4840 11241 4840 11246 4840 11250 4852 11251 4868 11251 4893 11253 4892 11269 4855L11287 4815 11300 4856C11307 4879 11310 4918 11306 4946 11291 5073 11287 5096 11279 5104 11265 5119 11268 5130 11285 5130 11295 5130 11300 5140 11300 5160 11300 5184 11296 5190 11278 5190 11265 5190 11236 5208 11214 5230 11177 5264 11173 5272 11179 5301 11186 5338 11210 5353 11210 5320 11210 5294 11299 5203 11333 5195 11347 5191 11370 5170 11385 5147 11407 5113 11411 5099 11405 5070 11401 5051 11396 5022 11393 5007 11390 4990 11393 4973 11403 4962 11419 4944 11490 4748 11490 4721 11490 4712 11502 4687 11517 4666 11531 4644 11553 4586 11566 4536 11585 4457 11586 4443 11574 4429 11565 4419 11562 4402 11566 4383 11569 4365 11567 4350 11561 4346 11555 4342 11550 4328 11550 4314 11550 4297 11556 4290 11569 4290 11590 4290 11620 4250 11620 4222 11620 4211 11627 4197 11635 4190 11643 4183 11650 4167 11650 4154 11650 4139 11673 4105 11715 4059 11751 4020 11780 3985 11780 3980 11780 3963 11883 3907 11967 3880 12015 3864 12062 3843 12070 3833 12093 3806 12133 3782 12223 3744 12268 3724 12314 3700 12326 3689 12337 3679 12354 3670 12364 3670 12373 3670 12396 3659 12414 3645 12433 3631 12460 3620 12478 3620 12499 3620 12515 3612 12529 3594L12550 3567 12550 3621C12550 3651 12543 3702 12535 3735 12527 3768 12521 3807 12520 3821 12520 3841 12502 3865 12452 3912 12374 3985 12368 3997 12376 4050 12381 4080 12387 4090 12404 4092 12436 4097 12433 4141 12400 4150 12324 4171 12279 4219 12265 4293 12259 4329 12262 4335 12300 4370 12336 4403 12339 4410 12331 4433 12317 4470 12276 4494 12241 4487 12222 4483 12208 4486 12200 4494 12194 4502 12179 4511 12166 4514 12142 4520 12100 4579 12100 4606 12100 4614 12107 4623 12116 4627 12124 4630 12136 4644 12141 4658 12149 4678 12146 4687 12129 4707 12107 4730 12057 4739 12046 4721 12030 4695 11940 4751 11940 4787 11940 4803 11872 4877 11866 4868 11842 4833 11822 4787 11826 4775 11835 4752 11815 4757 11767 4790 11718 4823 11710 4836 11710 4882 11710 4907 11697 4927 11650 4976 11595 5033 11591 5041 11597 5072 11600 5092 11616 5116 11636 5133 11675 5166 11678 5176 11650 5185 11639 5189 11630 5200 11630 5211 11630 5222 11625 5241 11619 5253 11608 5274 11608 5274 11626 5259 11636 5251 11657 5239 11673 5232 11698 5221 11700 5222 11700 5247 11700 5261 11691 5288 11679 5306 11662 5334 11660 5345 11669 5376 11676 5401 11676 5418 11669 5426 11662 5434 11667 5449 11684 5475 11698 5495 11712 5520 11715 5531 11723 5554 11761 5565 11788 5551 11804 5543 11812 5545 11830 5566L11854 5590 11823 5623C11791 5656 11770 5712 11770 5764 11770 5779 11759 5805 11745 5821 11732 5837 11718 5867 11715 5888 11711 5908 11700 5954 11689 5989 11679 6024 11670 6076 11670 6104 11669 6132 11662 6173 11654 6195 11645 6217 11637 6245 11636 6258 11634 6270 11625 6287 11614 6295 11596 6309 11596 6309 11618 6310 11634 6310 11644 6319 11652 6340 11658 6359 11671 6372 11686 6376 11705 6381 11710 6389 11710 6415 11710 6433 11703 6454 11694 6461 11685 6468 11674 6485 11669 6497 11662 6516 11657 6519 11642 6511 11632 6505 11614 6504 11602 6507 11589 6510 11569 6505 11554 6495 11540 6486 11526 6481 11523 6484 11519 6487 11510 6484 11502 6477 11490 6468 11486 6468 11483 6478 11480 6486 11457 6490 11418 6490 11366 6490 11355 6487 11338 6465 11327 6451 11310 6440 11298 6440 11279 6440 11279 6440 11300 6475 11319 6506 11320 6515 11310 6562 11302 6604 11289 6626 11248 6669 11199 6719 11195 6722 11158 6716 11123 6710 11119 6712 11110 6736 11104 6751 11101 6764 11102 6765 11112 6773 11190 6776 11203 6769 11214 6762 11224 6767 11240 6787 11258 6810 11261 6823 11256 6861 11248 6919 11259 6929 11324 6927 11362 6925 11375 6929 11384 6944 11420 7004 11439 7024 11470 7034 11498 7043 11506 7052 11517 7088 11524 7114 11526 7140 11521 7153 11516 7165 11514 7186 11517 7200L11521 7225 11494 7198 11467 7171 11424 7218C11393 7252 11381 7260 11380 7247 11380 7233 11376 7231 11363 7238 11352 7245 11346 7261 11346 7286 11345 7319 11342 7324 11326 7322 11310 7319 11308 7321 11318 7332 11327 7344 11325 7351 11305 7370 11291 7383 11280 7404 11280 7417 11280 7443 11277 7443 11238 7426ZM11270 6440C11270 6435 11261 6430 11249 6430 11238 6430 11232 6435 11235 6440 11238 6446 11248 6450 11256 6450 11264 6450 11270 6446 11270 6440ZM11250 6390C11250 6385 11245 6380 11239 6380 11234 6380 11232 6385 11235 6390 11238 6396 11243 6400 11246 6400 11248 6400 11250 6396 11250 6390ZM6916 5072C6894 5067 6886 5075 6895 5090 6900 5098 6906 5097 6917 5088 6932 5076 6931 5075 6916 5072ZM7156 4584C7151 4565 7154 4560 7170 4560 7201 4560 7194 4543 7151 4516 7129 4502 7109 4482 7105 4471 7102 4461 7087 4450 7072 4448 7057 4445 7036 4439 7025 4434 7007 4427 7007 4428 7028 4454 7040 4470 7050 4488 7050 4496 7050 4503 7064 4511 7080 4515 7101 4520 7110 4527 7110 4542 7110 4568 7141 4620 7153 4613 7158 4610 7159 4597 7156 4584ZM5336 4089C5344 4081 5350 4069 5350 4063 5350 4057 5356 4050 5363 4047 5371 4044 5370 4040 5358 4035 5349 4031 5331 4036 5316 4045 5295 4059 5290 4070 5290 4104 5290 4157 5302 4171 5314 4133 5319 4118 5329 4098 5336 4089ZM11169 2638C11175 2631 11193 2609 11210 2589 11245 2547 11249 2520 11220 2520 11208 2520 11194 2532 11185 2550 11175 2569 11162 2580 11149 2580 11131 2580 11129 2582 11141 2596 11151 2608 11151 2616 11142 2631 11132 2646 11133 2650 11145 2650 11153 2650 11164 2644 11169 2638Z" fill="#C8CFF0"/><path d="M10159 7085C10127 7064 10122 7055 10116 7008 10110 6961 10113 6948 10135 6908 10164 6855 10193 6843 10221 6871 10231 6881 10241 6893 10241 6898 10258 6994 10254 7080 10232 7096 10209 7114 10201 7113 10159 7085Z" fill="#C8CFF0"/><path d="M4700 6268C4691 6250 4692 6238 4704 6215 4717 6191 4717 6184 4706 6178 4682 6164 4700 6120 4736 6102 4768 6087 4783 6064 4784 6030 4785 6017 4849 5987 4859 5996 4861 5998 4852 6009 4839 6020 4819 6036 4817 6041 4830 6049 4842 6057 4842 6062 4826 6079 4815 6091 4801 6100 4793 6100 4785 6100 4782 6105 4785 6110 4788 6116 4813 6120 4839 6120 4894 6120 4932 6148 4911 6174 4902 6185 4907 6193 4937 6216 4974 6244 4974 6244 4950 6251 4910 6262 4900 6261 4900 6245 4900 6236 4891 6230 4876 6230 4862 6230 4848 6225 4845 6220 4841 6214 4830 6220 4818 6235 4806 6250 4788 6260 4773 6260 4758 6260 4739 6267 4729 6276 4712 6291 4710 6291 4700 6268ZM4770 6190C4770 6185 4763 6180 4755 6180 4747 6180 4740 6185 4740 6190 4740 6196 4747 6200 4755 6200 4763 6200 4770 6196 4770 6190Z" fill="#C8CFF0"/><path d="M5132 6190C5135 6171 5132 6160 5124 6160 5117 6160 5114 6168 5117 6180 5121 6196 5117 6200 5096 6200 5069 6200 5068 6194 5094 6161 5100 6154 5105 6140 5105 6131 5105 6122 5115 6114 5127 6112 5143 6110 5150 6115 5153 6132 5157 6155 5157 6155 5159 6133 5160 6113 5162 6112 5185 6122 5203 6130 5209 6139 5204 6149 5201 6158 5193 6177 5188 6193 5181 6213 5171 6220 5153 6220 5131 6220 5128 6217 5132 6190Z" fill="#C8CFF0"/><path d="M5294 6168C5297 6161 5303 6147 5306 6138 5310 6128 5321 6120 5331 6120 5345 6120 5350 6127 5350 6150 5350 6177 5347 6180 5319 6180 5298 6180 5290 6176 5294 6168Z" fill="#C8CFF0"/><path d="M5040 6155C5040 6146 5031 6140 5016 6140 4984 6140 4974 6123 4993 6102 5000 6093 5010 6077 5013 6068 5017 6057 5030 6050 5045 6050 5070 6050 5070 6050 5055 6080 5046 6097 5035 6108 5030 6105 5024 6102 5023 6105 5026 6113 5034 6136 5070 6121 5070 6095 5070 6072 5102 6035 5113 6047 5126 6059 5120 6087 5100 6105 5089 6115 5080 6134 5080 6147 5080 6163 5074 6170 5060 6170 5049 6170 5040 6163 5040 6155Z" fill="#C8CFF0"/><path d="M4882 6094C4886 6091 4885 6079 4879 6068 4866 6043 4883 6020 4916 6020 4933 6020 4938 6024 4934 6035 4929 6046 4935 6050 4955 6050 4977 6050 4981 6054 4978 6073 4975 6092 4968 6095 4925 6098 4898 6100 4879 6098 4882 6094Z" fill="#C8CFF0"/><path d="M5181 6076C5175 6069 5173 6054 5177 6044 5183 6026 5183 6026 5163 6043 5143 6061 5142 6060 5116 6028 5097 6004 5090 6000 5090 6013 5090 6024 5082 6030 5065 6030 5051 6030 5040 6026 5040 6021 5040 6016 5026 6013 5009 6014 4977 6015 4974 6011 4968 5966 4964 5940 5030 5924 5063 5942 5089 5956 5129 5959 5136 5948 5146 5932 5179 5940 5209 5966 5231 5985 5240 5988 5240 5977 5240 5961 5260 5950 5288 5950 5297 5950 5317 5962 5332 5977 5377 6020 5365 6078 5317 6047 5285 6027 5247 6019 5230 6030 5220 6037 5219 6040 5228 6040 5234 6040 5240 6051 5240 6065 5240 6085 5235 6090 5216 6090 5203 6090 5187 6084 5181 6076Z" fill="#C8CFF0"/><path d="M8471 6071C8457 6045 8472 6018 8496 6027 8514 6034 8514 6051 8496 6075 8483 6093 8482 6093 8471 6071Z" fill="#C8CFF0"/><path d="M6284 5923C6281 5912 6263 5896 6244 5885 6216 5870 6210 5861 6210 5834 6210 5816 6205 5789 6198 5775 6189 5755 6190 5744 6200 5722 6208 5707 6216 5691 6219 5686 6221 5681 6209 5680 6190 5683 6160 5689 6158 5688 6164 5667 6167 5655 6170 5637 6170 5628 6170 5605 6229 5576 6246 5591 6255 5598 6260 5599 6260 5592 6260 5587 6253 5577 6245 5570 6228 5556 6242 5530 6266 5530 6274 5530 6285 5519 6290 5505 6295 5492 6313 5474 6330 5465 6346 5457 6360 5445 6360 5439 6360 5431 6364 5431 6374 5439 6386 5449 6394 5448 6414 5435 6445 5414 6481 5421 6510 5452 6530 5473 6530 5474 6510 5507 6499 5526 6495 5542 6501 5545 6506 5549 6509 5576 6507 5607 6504 5656 6500 5664 6477 5677 6462 5685 6445 5688 6440 5685 6434 5682 6430 5688 6430 5699 6430 5711 6424 5720 6416 5720 6408 5720 6399 5727 6396 5736 6386 5761 6389 5810 6400 5810 6419 5810 6410 5833 6376 5870 6358 5890 6341 5912 6339 5917 6337 5923 6325 5931 6312 5935 6294 5940 6287 5938 6284 5923ZM6284 5645C6280 5637 6276 5630 6274 5630 6272 5630 6270 5637 6270 5645 6270 5653 6274 5660 6280 5660 6285 5660 6287 5653 6284 5645Z" fill="#C8CFF0"/><path d="M5061 5917C5040 5896 5048 5870 5075 5870 5089 5870 5100 5874 5100 5879 5100 5884 5103 5895 5106 5903 5112 5921 5076 5932 5061 5917Z" fill="#C8CFF0"/><path d="M6130 5905C6120 5892 6121 5886 6135 5870 6152 5851 6154 5851 6172 5866 6198 5891 6195 5920 6166 5920 6153 5920 6137 5913 6130 5905Z" fill="#C8CFF0"/><path d="M8727 5890C8701 5868 8690 5864 8682 5872 8673 5881 8662 5876 8636 5851 8606 5822 8599 5820 8580 5830 8560 5841 8559 5840 8565 5818 8585 5753 8638 5716 8670 5745 8679 5753 8698 5760 8712 5760 8757 5760 8803 5800 8813 5848 8828 5923 8787 5943 8727 5890Z" fill="#C8CFF0"/><path d="M5768 5879C5745 5866 5745 5853 5769 5840 5784 5833 5794 5835 5812 5849 5824 5860 5833 5870 5830 5873 5817 5885 5783 5888 5768 5879Z" fill="#C8CFF0"/><path d="M8480 5773C8461 5770 8437 5761 8428 5753 8414 5741 8407 5740 8396 5749 8385 5758 8374 5758 8345 5746 8308 5730 8307 5727 8327 5675 8331 5663 8251 5661 8232 5673 8224 5679 8218 5672 8214 5650 8210 5633 8203 5617 8199 5614 8187 5607 8188 5563 8200 5555 8206 5552 8210 5541 8210 5531 8210 5521 8219 5510 8229 5507 8240 5505 8250 5492 8252 5480 8255 5455 8266 5448 8325 5430 8387 5412 8432 5420 8440 5450 8452 5494 8499 5560 8514 5554 8534 5546 8572 5600 8567 5628 8565 5640 8567 5653 8571 5656 8585 5664 8581 5697 8565 5714 8557 5722 8550 5740 8550 5754 8550 5781 8551 5781 8480 5773Z" fill="#C8CFF0"/><path d="M5625 5636C5606 5622 5606 5621 5630 5601 5644 5590 5658 5581 5661 5580 5675 5580 5678 5623 5665 5636 5648 5653 5648 5653 5625 5636Z" fill="#C8CFF0"/><path d="M6567 5572C6558 5562 6548 5528 6544 5497 6540 5465 6533 5437 6529 5434 6524 5431 6520 5412 6520 5392 6520 5372 6516 5338 6511 5318 6504 5286 6505 5280 6520 5275 6531 5272 6554 5280 6576 5295 6597 5309 6625 5323 6639 5327 6681 5336 6729 5370 6745 5399 6758 5424 6757 5431 6738 5468 6727 5491 6714 5507 6709 5504 6703 5501 6690 5510 6678 5525 6667 5539 6652 5549 6645 5546 6637 5543 6629 5551 6626 5566 6618 5595 6590 5598 6567 5572Z" fill="#C8CFF0"/><path d="M8155 5500C8152 5495 8154 5483 8159 5473 8164 5463 8171 5447 8174 5438 8177 5428 8189 5420 8200 5420 8223 5420 8228 5457 8210 5491 8199 5511 8165 5517 8155 5500Z" fill="#C8CFF0"/><path d="M8634 5429C8601 5394 8592 5393 8588 5422 8585 5448 8556 5457 8535 5440 8514 5423 8516 5397 8541 5366 8561 5341 8563 5340 8575 5356 8586 5372 8588 5372 8601 5349 8608 5336 8613 5318 8612 5309 8610 5300 8616 5288 8624 5281 8636 5271 8640 5273 8645 5289 8649 5301 8669 5315 8698 5325 8724 5333 8756 5349 8769 5359 8791 5376 8792 5378 8776 5408 8764 5431 8752 5440 8735 5440 8722 5440 8700 5444 8687 5449 8666 5457 8658 5454 8634 5429Z" fill="#C8CFF0"/><path d="M6764 5384C6767 5366 6806 5341 6832 5340 6855 5340 6863 5356 6850 5380 6836 5406 6760 5410 6764 5384Z" fill="#C8CFF0"/><path d="M8325 5259C8321 5253 8320 5248 8321 5246 8370 5214 8382 5209 8395 5220 8418 5239 8396 5270 8360 5270 8344 5270 8328 5265 8325 5259Z" fill="#C8CFF0"/><path d="M5080 5212C5055 5199 5027 5181 5018 5173 4996 5154 4895 5162 4870 5185 4848 5204 4826 5204 4809 5184 4799 5172 4784 5169 4753 5173 4705 5178 4651 5163 4621 5136 4607 5123 4593 5120 4575 5124 4557 5129 4550 5126 4550 5115 4550 5097 4538 5096 4523 5111 4506 5128 4490 5112 4492 5082 4495 5045 4484 5030 4453 5030 4438 5030 4430 5027 4433 5024 4444 5013 4362 4961 4314 4948 4262 4934 4248 4914 4275 4894 4285 4886 4288 4880 4282 4880 4275 4880 4270 4874 4270 4866 4270 4856 4259 4854 4225 4858 4182 4862 4180 4861 4180 4837 4180 4818 4176 4812 4166 4816 4158 4819 4140 4814 4125 4804 4101 4788 4100 4785 4114 4775 4128 4764 4128 4761 4111 4746 4101 4737 4070 4727 4042 4723 3988 4717 3970 4701 3957 4651 3952 4632 3958 4619 3987 4593 4031 4551 4046 4499 4019 4476 4008 4467 4000 4452 4000 4442 4000 4422 4069 4350 4088 4350 4095 4350 4100 4346 4100 4341 4100 4336 4110 4330 4123 4328 4137 4326 4146 4317 4148 4303 4151 4281 4152 4281 4186 4297 4223 4315 4227 4331 4206 4370 4196 4386 4195 4402 4201 4418 4206 4432 4206 4448 4201 4458 4189 4481 4199 4567 4216 4581 4224 4587 4230 4598 4230 4606 4230 4613 4239 4621 4249 4625 4261 4628 4270 4642 4272 4658 4274 4680 4281 4686 4305 4688 4326 4690 4341 4701 4358 4725 4370 4744 4386 4760 4394 4760 4401 4760 4413 4767 4420 4775 4429 4786 4436 4788 4444 4780 4460 4764 4470 4768 4470 4790 4470 4801 4477 4810 4485 4810 4493 4810 4500 4814 4500 4820 4500 4825 4518 4842 4540 4856 4562 4871 4580 4889 4580 4897 4580 4906 4586 4910 4595 4906 4603 4903 4610 4905 4610 4910 4610 4916 4626 4920 4646 4920 4692 4920 4721 4936 4713 4956 4705 4976 4726 4990 4766 4990 4783 4990 4803 4997 4810 5005 4819 5016 4843 5020 4896 5020 4936 5020 4971 5024 4975 5030 4979 5036 4989 5035 5004 5029 5022 5021 5034 5022 5058 5034 5075 5043 5100 5050 5112 5050 5126 5050 5151 5065 5173 5088 5201 5117 5210 5134 5210 5160 5209 5231 5156 5252 5080 5212Z" fill="#C8CFF0"/><path d="M6866 5223C6858 5202 6874 5185 6894 5193 6916 5201 6914 5217 6891 5229 6876 5237 6871 5236 6866 5223Z" fill="#C8CFF0"/><path d="M6086 5114C6082 5105 6085 5091 6092 5083 6103 5070 6107 5071 6122 5090 6132 5102 6140 5116 6140 5121 6140 5137 6092 5130 6086 5114Z" fill="#C8CFF0"/><path d="M6395 5110C6385 5099 6370 5090 6361 5090 6349 5090 6350 5085 6367 5068 6389 5047 6390 5047 6410 5065 6430 5083 6438 5130 6422 5130 6417 5130 6405 5121 6395 5110Z" fill="#C8CFF0"/><path d="M11727 5068C11705 5056 11704 4978 11725 4960 11733 4953 11740 4939 11740 4929 11740 4918 11753 4904 11771 4894L11803 4878 11796 4916C11792 4938 11788 4979 11787 5009 11785 5053 11781 5064 11764 5070 11753 5075 11736 5074 11727 5068Z" fill="#C8CFF0"/><path d="M12564 4969C12534 4958 12525 4941 12542 4924 12554 4912 12560 4914 12584 4939 12613 4970 12604 4984 12564 4969Z" fill="#C8CFF0"/><path d="M5771 4886C5754 4866 5783 4846 5817 4855L5845 4862 5820 4881C5790 4903 5786 4904 5771 4886Z" fill="#C8CFF0"/><path d="M12390 4870C12383 4866 12381 4854 12385 4841 12390 4823 12399 4820 12444 4820 12484 4820 12501 4825 12515 4840 12525 4851 12530 4863 12527 4867 12517 4876 12405 4879 12390 4870Z" fill="#C8CFF0"/><path d="M5736 4777C5715 4761 5722 4720 5746 4720 5766 4720 5775 4746 5764 4771 5756 4788 5753 4789 5736 4777Z" fill="#C8CFF0"/><path d="M7242 4747C7218 4722 7213 4690 7232 4690 7238 4690 7251 4683 7260 4675 7276 4661 7280 4662 7309 4685 7331 4704 7340 4721 7340 4741 7340 4768 7337 4770 7302 4770 7275 4770 7257 4763 7242 4747Z" fill="#C8CFF0"/><path d="M5888 4611C5873 4596 5876 4576 5896 4551 5903 4543 5930 4573 5930 4590 5930 4619 5908 4630 5888 4611Z" fill="#C8CFF0"/><path d="M5090 4552C5090 4547 5078 4538 5064 4531 5049 4524 5040 4514 5043 4506 5046 4499 5044 4488 5039 4483 5021 4465 5059 4437 5093 4444 5109 4447 5129 4450 5136 4450 5157 4450 5153 4476 5125 4520 5100 4559 5090 4568 5090 4552Z" fill="#C8CFF0"/><path d="M5737 4533C5724 4521 5730 4500 5747 4500 5756 4500 5772 4493 5782 4483 5799 4468 5800 4468 5800 4497 5800 4516 5794 4530 5784 4534 5764 4542 5745 4542 5737 4533Z" fill="#C8CFF0"/><path d="M5340 4475C5324 4456 5346 4424 5364 4439 5371 4445 5386 4447 5398 4443 5423 4437 5425 4442 5410 4471 5397 4494 5358 4496 5340 4475Z" fill="#C8CFF0"/><path d="M3536 4365C3487 4302 3531 4252 3622 4266 3675 4275 3686 4303 3658 4359 3640 4396 3634 4400 3600 4400 3569 4400 3558 4394 3536 4365Z" fill="#C8CFF0"/><path d="M2384 4365C2380 4357 2383 4343 2390 4335 2401 4321 2405 4321 2422 4337 2440 4353 2440 4355 2424 4367 2401 4384 2391 4383 2384 4365Z" fill="#C8CFF0"/><path d="M5504 4325C5498 4301 5513 4270 5531 4270 5536 4270 5547 4281 5556 4295 5569 4315 5570 4323 5560 4335 5540 4359 5511 4353 5504 4325Z" fill="#C8CFF0"/><path d="M84 4296C73 4287 54 4284 37 4287 11 4292 10 4291 19 4269 55 4176 89 4117 137 4062L192 4000 233 4022C289 4053 302 4089 272 4130 258 4148 250 4174 250 4198 250 4229 245 4241 226 4253 205 4267 201 4267 187 4253 172 4238 170 4238 164 4256 154 4282 129 4310 115 4310 109 4310 95 4304 84 4296Z" fill="#C8CFF0"/><path d="M12516 3535C12501 3512 12501 3508 12516 3485 12527 3468 12531 3448 12527 3426 12520 3383 12549 3349 12575 3370 12583 3377 12590 3392 12590 3404 12590 3416 12595 3431 12601 3437 12609 3445 12606 3459 12591 3486 12580 3508 12569 3533 12566 3543 12558 3568 12535 3564 12516 3535Z" fill="#C8CFF0"/><path d="M12600 3276C12600 3263 12607 3247 12616 3240 12628 3229 12634 3230 12648 3244 12664 3260 12664 3262 12640 3280 12607 3306 12600 3305 12600 3276Z" fill="#C8CFF0"/><path d="M12750 2725C12750 2683 12752 2680 12776 2680 12796 2680 12801 2684 12796 2696 12793 2705 12790 2725 12790 2741 12790 2763 12785 2770 12770 2770 12753 2770 12750 2763 12750 2725Z" fill="#C8CFF0"/><path d="M10640 2671C10640 2665 10634 2660 10626 2660 10605 2660 10592 2639 10588 2600 10585 2570 10588 2565 10607 2565 10619 2565 10632 2561 10636 2557 10648 2545 10680 2582 10680 2607 10680 2621 10671 2643 10660 2657 10649 2671 10640 2678 10640 2671Z" fill="#C8CFF0"/><path d="M12738 2483C12728 2465 12723 2436 12724 2405 12726 2359 12729 2355 12751 2355 12774 2355 12775 2359 12780 2433 12784 2498 12783 2510 12770 2510 12761 2510 12747 2498 12738 2483Z" fill="#C8CFF0"/><path d="M12696 2251C12687 2237 12700 2210 12715 2210 12730 2210 12743 2237 12734 2251 12731 2256 12723 2260 12715 2260 12707 2260 12699 2256 12696 2251Z" fill="#C8CFF0"/><path d="M12654 2169C12642 2150 12649 2017 12663 2008 12685 1994 12695 2006 12697 2051 12699 2075 12703 2108 12706 2124 12711 2146 12708 2156 12695 2167 12672 2183 12663 2183 12654 2169Z" fill="#C8CFF0"/><path d="M12617 1913C12601 1909 12600 1902 12605 1867 12618 1790 12649 1792 12653 1870 12655 1914 12649 1921 12617 1913Z" fill="#C8CFF0"/><path d="M12724 1879C12714 1862 12747 1833 12761 1847 12768 1854 12770 1866 12767 1874 12760 1892 12734 1895 12724 1879Z" fill="#C8CFF0"/></g></svg>